<?xml version="1.0" encoding="UTF-8" standalone="no"?>
<svg
   xmlns:ooo="http://xml.openoffice.org/svg/export"
   xmlns:dc="http://purl.org/dc/elements/1.1/"
   xmlns:cc="http://creativecommons.org/ns#"
   xmlns:rdf="http://www.w3.org/1999/02/22-rdf-syntax-ns#"
   xmlns:svg="http://www.w3.org/2000/svg"
   xmlns="http://www.w3.org/2000/svg"
   xmlns:sodipodi="http://sodipodi.sourceforge.net/DTD/sodipodi-0.dtd"
   xmlns:inkscape="http://www.inkscape.org/namespaces/inkscape"
   version="1.2"
   width="37.02mm"
   height="30.07mm"
   viewBox="8524 13549 3702 3007"
   preserveAspectRatio="xMidYMid"
   fill-rule="evenodd"
   stroke-width="28.222"
   stroke-linejoin="round"
   xml:space="preserve"
   id="svg395"
   sodipodi:docname="alfabeta.svg"
   inkscape:version="0.92.2 5c3e80d, 2017-08-06"><metadata
     id="metadata399"><rdf:RDF><cc:Work
         rdf:about=""><dc:format>image/svg+xml</dc:format><dc:type
           rdf:resource="http://purl.org/dc/dcmitype/StillImage" /></cc:Work></rdf:RDF></metadata><sodipodi:namedview
     pagecolor="#ffffff"
     bordercolor="#666666"
     borderopacity="1"
     objecttolerance="10"
     gridtolerance="10"
     guidetolerance="10"
     inkscape:pageopacity="0"
     inkscape:pageshadow="2"
     inkscape:window-width="1440"
     inkscape:window-height="878"
     id="namedview397"
     showgrid="false"
     inkscape:zoom="5.6489026"
     inkscape:cx="17.559498"
     inkscape:cy="56.825196"
     inkscape:window-x="1920"
     inkscape:window-y="180"
     inkscape:window-maximized="1"
     inkscape:current-layer="container-id1" /><defs
     class="ClipPathGroup"
     id="defs331"><clipPath
       id="presentation_clip_path"
       clipPathUnits="userSpaceOnUse"><rect
         x="8524"
         y="13549"
         width="3702"
         height="3007"
         id="rect325" /></clipPath><clipPath
       id="presentation_clip_path_shrink"
       clipPathUnits="userSpaceOnUse"><rect
         x="8527"
         y="13552"
         width="3695"
         height="3001"
         id="rect328" /></clipPath></defs><defs
     class="TextShapeIndex"
     id="defs335"><g
       ooo:slide="id1"
       ooo:id-list="id3 id4"
       id="g333" /></defs><defs
     class="EmbeddedBulletChars"
     id="defs367"><g
       id="bullet-char-template(57356)"
       transform="scale(0.00048828125,-0.00048828125)"><path
         d="M 580,1141 L 1163,571 580,0 -4,571 580,1141 Z"
         id="path337" /></g><g
       id="bullet-char-template(57354)"
       transform="scale(0.00048828125,-0.00048828125)"><path
         d="M 8,1128 L 1137,1128 1137,0 8,0 8,1128 Z"
         id="path340" /></g><g
       id="bullet-char-template(10146)"
       transform="scale(0.00048828125,-0.00048828125)"><path
         d="M 174,0 L 602,739 174,1481 1456,739 174,0 Z M 1358,739 L 309,1346 659,739 1358,739 Z"
         id="path343" /></g><g
       id="bullet-char-template(10132)"
       transform="scale(0.00048828125,-0.00048828125)"><path
         d="M 2015,739 L 1276,0 717,0 1260,543 174,543 174,936 1260,936 717,1481 1274,1481 2015,739 Z"
         id="path346" /></g><g
       id="bullet-char-template(10007)"
       transform="scale(0.00048828125,-0.00048828125)"><path
         d="M 0,-2 C -7,14 -16,27 -25,37 L 356,567 C 262,823 215,952 215,954 215,979 228,992 255,992 264,992 276,990 289,987 310,991 331,999 354,1012 L 381,999 492,748 772,1049 836,1024 860,1049 C 881,1039 901,1025 922,1006 886,937 835,863 770,784 769,783 710,716 594,584 L 774,223 C 774,196 753,168 711,139 L 727,119 C 717,90 699,76 672,76 641,76 570,178 457,381 L 164,-76 C 142,-110 111,-127 72,-127 30,-127 9,-110 8,-76 1,-67 -2,-52 -2,-32 -2,-23 -1,-13 0,-2 Z"
         id="path349" /></g><g
       id="bullet-char-template(10004)"
       transform="scale(0.00048828125,-0.00048828125)"><path
         d="M 285,-33 C 182,-33 111,30 74,156 52,228 41,333 41,471 41,549 55,616 82,672 116,743 169,778 240,778 293,778 328,747 346,684 L 369,508 C 377,444 397,411 428,410 L 1163,1116 C 1174,1127 1196,1133 1229,1133 1271,1133 1292,1118 1292,1087 L 1292,965 C 1292,929 1282,901 1262,881 L 442,47 C 390,-6 338,-33 285,-33 Z"
         id="path352" /></g><g
       id="bullet-char-template(9679)"
       transform="scale(0.00048828125,-0.00048828125)"><path
         d="M 813,0 C 632,0 489,54 383,161 276,268 223,411 223,592 223,773 276,916 383,1023 489,1130 632,1184 813,1184 992,1184 1136,1130 1245,1023 1353,916 1407,772 1407,592 1407,412 1353,268 1245,161 1136,54 992,0 813,0 Z"
         id="path355" /></g><g
       id="bullet-char-template(8226)"
       transform="scale(0.00048828125,-0.00048828125)"><path
         d="M 346,457 C 273,457 209,483 155,535 101,586 74,649 74,723 74,796 101,859 155,911 209,963 273,989 346,989 419,989 480,963 531,910 582,859 608,796 608,723 608,648 583,586 532,535 482,483 420,457 346,457 Z"
         id="path358" /></g><g
       id="bullet-char-template(8211)"
       transform="scale(0.00048828125,-0.00048828125)"><path
         d="M -4,459 L 1135,459 1135,606 -4,606 -4,459 Z"
         id="path361" /></g><g
       id="bullet-char-template(61548)"
       transform="scale(0.00048828125,-0.00048828125)"><path
         d="M 173,740 C 173,903 231,1043 346,1159 462,1274 601,1332 765,1332 928,1332 1067,1274 1183,1159 1299,1043 1357,903 1357,740 1357,577 1299,437 1183,322 1067,206 928,148 765,148 601,148 462,206 346,322 231,437 173,577 173,740 Z"
         id="path364" /></g></defs><defs
     class="TextEmbeddedBitmaps"
     id="defs369" /><g
     class="SlideGroup"
     id="g393"><g
       id="g391"><g
         id="container-id1"><g
           id="id1"
           class="Slide"
           clip-path="url(#presentation_clip_path)"><g
             class="Page"
             id="g387"><g
               class="Group"
               id="g385"><g
                 class="com.sun.star.drawing.ClosedBezierShape"
                 id="g376"><g
                   id="id3"><path
                     style="fill:none;stroke:none"
                     d="m 8524,14317 h 1915 v 1583 H 8524 Z"
                     id="rect371" /><path
                     fill="rgb(255,51,51)"
                     stroke="none"
                     d="M 9619,15662 C 9694,15554 9760,15357 9817,15070 L 9817,15069 9817,15067 C 9768,14833 9703,14665 9623,14561 9543,14457 9439,14405 9311,14405 9172,14405 9063,14469 8983,14595 8903,14721 8863,14891 8863,15105 8863,15337 8901,15514 8976,15638 9052,15762 9162,15824 9308,15824 9440,15824 9544,15770 9619,15662 Z M 10280,14364 L 10153,14860 C 10130,14948 10103,15034 10074,15117 10044,15201 10011,15280 9976,15356 L 9976,15360 9976,15363 C 10015,15462 10056,15537 10100,15587 10144,15637 10192,15662 10242,15662 10281,15662 10313,15648 10339,15618 10365,15589 10381,15552 10388,15507 L 10437,15507 10437,15535 C 10437,15660 10420,15751 10386,15810 10352,15869 10301,15899 10232,15899 10160,15899 10102,15870 10059,15812 10016,15754 9974,15642 9933,15475 L 9928,15456 9918,15472 C 9829,15622 9733,15731 9630,15798 9528,15865 9407,15899 9267,15899 9054,15899 8877,15823 8736,15672 8595,15521 8524,15330 8524,15098 8524,14890 8597,14708 8742,14552 8886,14396 9058,14318 9257,14318 9412,14318 9539,14364 9637,14455 9735,14547 9805,14684 9845,14867 L 9854,14902 9981,14364 10280,14364 Z"
                     id="path373"
                     style="fill:#ffffff;fill-opacity:0.50196081" /></g></g><g
                 class="com.sun.star.drawing.ClosedBezierShape"
                 id="g383"><g
                   id="id4"><path
                     style="fill:none;stroke:none"
                     d="m 10768,13548 h 1459 v 3009 h -1459 z"
                     id="rect378" /><path
                     fill="rgb(255,51,51)"
                     stroke="none"
                     d="M 11215,15611 C 11232,15673 11270,15724 11329,15766 11388,15807 11456,15828 11533,15828 11652,15828 11746,15775 11814,15670 11882,15564 11917,15423 11917,15244 11917,15064 11884,14918 11818,14805 11753,14692 11655,14614 11526,14572 L 11523,14572 11521,14572 C 11515,14575 11503,14579 11487,14586 11405,14622 11343,14640 11300,14640 11270,14640 11247,14632 11232,14615 11216,14598 11209,14572 11209,14539 11209,14507 11217,14485 11233,14471 11249,14457 11274,14450 11310,14450 11338,14450 11397,14467 11487,14500 L 11536,14518 11540,14518 C 11614,14486 11670,14435 11707,14365 11743,14295 11761,14205 11761,14096 11761,13953 11729,13839 11666,13755 11603,13672 11517,13630 11411,13630 11283,13630 11191,13680 11134,13779 11078,13879 11050,14045 11050,14278 L 11050,16555 10769,16555 10769,14594 C 10769,14260 10829,14002 10950,13821 11071,13639 11241,13549 11462,13549 11639,13549 11783,13595 11893,13687 12002,13779 12057,13900 12057,14052 12057,14157 12019,14252 11942,14334 11866,14417 11754,14483 11607,14531 L 11581,14541 11609,14548 C 11813,14598 11967,14678 12070,14787 12174,14895 12226,15031 12226,15193 12226,15399 12164,15568 12041,15700 11917,15833 11763,15899 11578,15899 11457,15899 11358,15872 11280,15819 11202,15765 11156,15696 11143,15611 L 11215,15611 Z"
                     id="path380" /></g></g></g></g></g></g></g></g></svg>